<?xml version="1.0" standalone="no"?><!DOCTYPE svg PUBLIC "-//W3C//DTD SVG 1.1//EN" "http://www.w3.org/Graphics/SVG/1.1/DTD/svg11.dtd"><svg t="1500539226857" class="icon" style="" viewBox="0 0 1024 1024" version="1.1" xmlns="http://www.w3.org/2000/svg" p-id="2910" xmlns:xlink="http://www.w3.org/1999/xlink" width="200" height="200"><defs><style type="text/css"></style></defs><path d="M512 950.857143q-14.857143 0-25.142857-10.285714l-356.571429-344q-5.714286-4.571429-15.714285-14.857143T82.857143 544.285714 44 488.571429 13.428571 419.428571 0 340.571429q0-125.714286 72.571429-196.571429t200.571428-70.857143q35.428571 0 72.285714 12.285714t68.571429 33.142858T468.571429 157.714286t43.428571 38.857143q20.571429-20.571429 43.428571-38.857143t54.571429-39.142857 68.571429-33.142858T750.857143 73.142857q128 0 200.571428 70.857143t72.571429 196.571429q0 126.285714-130.857143 257.142857l-356 342.857143q-10.285714 10.285714-25.142857 10.285714z" fill="#d81e06" p-id="2911"></path></svg>