<?xml version="1.0" standalone="no"?><!DOCTYPE svg PUBLIC "-//W3C//DTD SVG 1.1//EN" "http://www.w3.org/Graphics/SVG/1.1/DTD/svg11.dtd"><svg t="1483415095555" class="icon" style="" viewBox="0 0 1024 1024" version="1.1" xmlns="http://www.w3.org/2000/svg" p-id="1294" xmlns:xlink="http://www.w3.org/1999/xlink" width="200" height="200"><defs><style type="text/css"></style></defs><path d="M403.356093 722.335473c-38.169321 137.466861-98.882078 240.645802-135.594211 230.444463-36.721343-10.191106-35.537378-129.896442 2.642177-267.37149 38.169321-137.456628 98.882078-240.630453 135.594211-230.435253C442.719612 465.169415 441.534624 584.871681 403.356093 722.335473z" p-id="1295" fill="#00a33e"></path><path d="M228.408595 301.111942C119.015116 209.534224 50.150702 111.601774 74.622046 82.387405c24.452925-29.224602 132.962268 21.335934 242.364957 112.922862 109.393479 91.568509 178.24766 189.501982 153.776316 218.720444C446.310394 443.250196 337.801051 392.694777 228.408595 301.111942z" p-id="1296" fill="#00a33e"></path><path d="M736.640782 449.459618c-130.84607 56.900941-249.227248 74.68805-264.419252 39.762609-15.193027-34.95921 78.546937-109.407806 209.375611-166.304653 130.827651-56.891731 249.218038-74.68805 264.411065-39.753399C961.20021 318.123384 867.460246 392.567887 736.640782 449.459618z" p-id="1297" fill="#00a33e"></path></svg>