<?xml version="1.0" encoding="utf-8"?>
<!-- Generator: Adobe Illustrator 16.0.0, SVG Export Plug-In . SVG Version: 6.00 Build 0)  -->
<!DOCTYPE svg PUBLIC "-//W3C//DTD SVG 1.1//EN" "http://www.w3.org/Graphics/SVG/1.1/DTD/svg11.dtd">
<svg version="1.1" id="图层_1" xmlns="http://www.w3.org/2000/svg" xmlns:xlink="http://www.w3.org/1999/xlink" x="0px" y="0px"
	 width="224.552px" height="229.282px" viewBox="0 0 224.552 229.282" enable-background="new 0 0 224.552 229.282"
	 xml:space="preserve">
<g>
	<defs>
		<rect id="SVGID_1_" width="224.552" height="229.282"/>
	</defs>
	<clipPath id="SVGID_2_">
		<use xlink:href="#SVGID_1_"  overflow="visible"/>
	</clipPath>
	<path clip-path="url(#SVGID_2_)" fill-rule="evenodd" clip-rule="evenodd" fill="#1A98C7" d="M45.803,145.643
		c-6.361,8.04-14.725,11.611-24.42,9.158c-10.826-2.74-18.4-10.149-20.001-21.681C-4.283,92.328,7.424,57.287,37.267,29.582
		c28.258-26.231,61.817-34.48,99.23-26.874c-17.74,2.826-34.821,7.586-49.898,18.288c-20.062,14.242-30.687,34.55-34.05,58.594
		c-2.019,14.43-1.806,29.196-2.302,43.815C49.989,131.13,51.054,139.006,45.803,145.643"/>
	<path clip-path="url(#SVGID_2_)" fill-rule="evenodd" clip-rule="evenodd" fill="#1A98C7" d="M120.063,19.907
		C125.4,8.381,139.99,2.372,152.045,6.882c53.531,20.029,84.129,82.022,68.362,138.132c-4.428,15.759-11.583,29.931-21.725,42.57
		c-0.987,1.226-2.068,2.376-2.253,2.593c2.417-10.507,5.906-21.819,7.512-33.42c4.064-29.327-6.205-53.547-26.927-73.637
		c-13.59-13.173-29.644-22.668-46.084-31.286C118.159,45.151,115.324,30.147,120.063,19.907"/>
	<path clip-path="url(#SVGID_2_)" fill-rule="evenodd" clip-rule="evenodd" fill="#1A98C7" d="M36.292,178.439
		c24.613,16.198,50.795,17.129,77.168,6.348c14.704-6.004,28.778-13.955,42.365-22.343c13.156-8.123,26.509-3.277,33.161,6.656
		c7.078,10.57,4.391,26.558-5.919,35.069C123,253.834,31.09,226.477,6.506,151.622c-0.205-0.594-0.279-1.229-0.41-1.839
		C15.255,160.683,24.639,170.771,36.292,178.439"/>
	<path clip-path="url(#SVGID_2_)" fill-rule="evenodd" clip-rule="evenodd" fill="#1A98C7" d="M144.264,98.202
		c0.531,1.593,1.372,3.236,2.494,4.44c5.897,6.341,8.449,13.918,8.023,22.524c-0.086,1.77-1.314,3.469-2.011,5.214
		c-1.597-0.852-3.297-1.544-4.735-2.612c-1.102-0.819-1.854-2.11-2.957-3.425c-2.445,4.411-4.543,8.192-6.804,12.255
		c1.11,0.708,2.523,1.254,3.441,2.273c1.441,1.593,3.666,3.65,3.469,5.231c-0.213,1.69-2.609,3.809-4.478,4.451
		c-7.344,2.523-14.704,2.085-21.246-2.474c-3.85-2.671-7.036-2.879-10.895-0.105c-6.197,4.447-13.263,4.983-20.341,2.956
		c-2.183-0.627-5.472-3.034-5.423-4.537c0.057-2.118,2.679-4.229,4.371-6.202c0.581-0.681,1.634-0.972,2.609-1.512
		c-2.536-3.879-4.969-7.618-7.705-11.809c-0.909,0.979-1.712,2.154-2.785,2.908c-1.479,1.041-3.179,1.749-4.784,2.608
		c-0.705-1.74-1.942-3.452-2.032-5.222c-0.397-7.855,2.138-14.705,6.623-21.168c2.88-4.154,4.825-9.048,6.796-13.787
		c1.757-4.203,2.494-8.905,4.534-12.94c4.911-9.683,13.197-14.135,23.724-14.065c10.801,0.069,19.112,4.972,23.617,15.02
		C140.609,84.562,142.048,91.554,144.264,98.202"/>
</g>
</svg>
