<?xml version="1.0" encoding="utf-8"?>
<!-- Generator: Adobe Illustrator 16.0.0, SVG Export Plug-In . SVG Version: 6.00 Build 0)  -->
<!DOCTYPE svg PUBLIC "-//W3C//DTD SVG 1.1//EN" "http://www.w3.org/Graphics/SVG/1.1/DTD/svg11.dtd">
<svg version="1.1" id="图层_1" xmlns="http://www.w3.org/2000/svg" xmlns:xlink="http://www.w3.org/1999/xlink" x="0px" y="0px"
	 width="715.502px" height="660.387px" viewBox="0 0 715.502 660.387" enable-background="new 0 0 715.502 660.387"
	 xml:space="preserve">
<g>
	<defs>
		<rect id="SVGID_1_" width="715.502" height="660.387"/>
	</defs>
	<clipPath id="SVGID_2_">
		<use xlink:href="#SVGID_1_"  overflow="visible"/>
	</clipPath>
	<path clip-path="url(#SVGID_2_)" fill-rule="evenodd" clip-rule="evenodd" fill="#1A98C7" d="M383.353,305.4L248.363,202.64
		c-17.913-13.636-32.569-6.374-32.569,16.139v222.829c0,22.513,14.656,29.774,32.569,16.139l134.989-102.76
		C401.266,341.35,401.266,319.037,383.353,305.4"/>
	<path clip-path="url(#SVGID_2_)" fill-rule="evenodd" clip-rule="evenodd" fill="#1A98C7" d="M687.251,261.727
		C547.539,127.73,366.695,46.34,256.718,5.651c-52.826-19.544-110.629,13.579-120.43,69.045c-0.495,2.803-0.976,5.599-1.451,8.393
		c101.576,31.502,265.558,93.483,392.604,194.728c35.548,28.328,34.625,75.793-2.573,102.619
		c-71.913,51.859-204.728,134.585-390.648,196.769c0.42,2.57,0.84,5.115,1.262,7.608c9.599,56.815,69.241,90.504,122.724,69.062
		c202.96-81.374,347.89-189.995,426.25-258.004C724.86,360.804,725.862,298.758,687.251,261.727"/>
	<path clip-path="url(#SVGID_2_)" fill-rule="evenodd" clip-rule="evenodd" fill="#1A98C7" d="M134.837,83.089
		c-1.264-0.392-2.527-0.783-3.772-1.165C82.43,66.973,29.214,92.311,20.191,134.742C-14.29,296.887,2.226,440.275,19.447,524.974
		c8.837,43.464,63.748,69.234,112.987,52.831c0.598-0.198,1.189-0.401,1.786-0.601C116.243,467.134,100.127,286.839,134.837,83.089"
		/>
</g>
</svg>
